<svg width="14" height="14" viewBox="0 0 14 14" fill="none" xmlns="http://www.w3.org/2000/svg">
<path d="M6.42741 2.73807C6.62425 2.33931 7.19288 2.33931 7.38971 2.73807L8.39579 4.77628C8.47388 4.93448 8.62476 5.04419 8.79933 5.06971L11.0501 5.39868C11.49 5.46299 11.6653 6.00377 11.3468 6.31399L9.71907 7.89944C9.59251 8.02271 9.53474 8.20038 9.5646 8.37452L9.94865 10.6137C10.0238 11.052 9.56369 11.3863 9.17005 11.1793L7.15831 10.1213C7.00196 10.0391 6.81516 10.0391 6.65881 10.1213L4.64707 11.1793C4.25343 11.3863 3.79329 11.052 3.86848 10.6137L4.25252 8.37452C4.28239 8.20038 4.22462 8.02271 4.09805 7.89944L2.47029 6.31399C2.15178 6.00377 2.32712 5.46299 2.76707 5.39868L5.01779 5.06971C5.19237 5.04419 5.34324 4.93448 5.42134 4.77628L6.42741 2.73807Z" fill="#4E60FF"/>
</svg>
